<?xml version="1.0" encoding="UTF-8"?>
<svg xmlns="http://www.w3.org/2000/svg" viewBox="0 0 1197 846">
  <!--
    LOGO: Daniel Molina - Monograma DM (master v2 - bordes suavizados)
    PALETA: #7C3AED → #2563EB → #06B6D4
    Reconstrucción vectorial con suavizado adicional para curvas limpias
  -->
  <defs>
    <linearGradient id="dmGrad" gradientUnits="userSpaceOnUse" x1="0" y1="0" x2="1197" y2="846">
      <stop offset="0%" stop-color="#7C3AED"/>
      <stop offset="50%" stop-color="#2563EB"/>
      <stop offset="100%" stop-color="#06B6D4"/>
    </linearGradient>
  </defs>
  <path d="M 133.20000000000002,10.058488970345056 C 47.70000000000002,9.858488970345011 26.200000000000003,10.158488970344965 23.10000000000001,11.158488970344965 C 20.900000000000006,11.858488970345011 17.5,14.258488970344875 15.600000000000009,16.35848897034501 C 13.700000000000003,18.45848897034492 11.700000000000003,21.95848897034492 11.100000000000009,24.058488970345056 C 10.5,26.45848897034492 10.100000000000009,58.258488970344985 10.0,109.95848897034492 C 10.0,181.858488970345 10.200000000000003,192.55848897034494 11.5,196.45848897034492 C 12.400000000000006,198.858488970345 14.300000000000011,202.55848897034494 15.700000000000003,204.65848897034496 C 17.200000000000003,206.75848897034498 20.200000000000003,209.45848897034492 22.400000000000006,210.55848897034494 C 26.5,212.65848897034496 26.700000000000003,212.65848897034496 143.5,212.75848897034498 C 249.3,212.858488970345 261.5,213.05848897034494 270.8,214.55848897034494 C 276.5,215.55848897034494 286.8,217.45848897034492 293.8,218.858488970345 C 300.8,220.25848897034498 308.70000000000005,221.858488970345 311.5,222.358488970345 C 314.20000000000005,222.95848897034492 321.90000000000003,225.858488970345 328.5,228.858488970345 C 335.20000000000005,231.858488970345 344.6,235.65848897034496 349.5,237.45848897034492 C 354.5,239.15848897034496 365.20000000000005,243.95848897034492 373.40000000000003,248.05848897034494 C 381.70000000000005,252.15848897034496 391.8,257.85848897034504 396.0,260.658488970345 C 400.1,263.45848897034494 408.20000000000005,269.45848897034494 414.0,274.158488970345 C 419.80000000000007,278.758488970345 429.20000000000005,287.35848897034504 434.80000000000007,293.258488970345 C 440.5,299.05848897034497 445.9,305.158488970345 446.70000000000005,306.85848897034504 C 447.6,308.45848897034494 450.0,311.758488970345 452.1,314.05848897034497 C 454.20000000000005,316.35848897034504 458.1,321.55848897034497 460.6,325.55848897034497 C 463.20000000000005,329.55848897034497 466.80000000000007,336.258488970345 468.6,340.35848897034504 C 470.30000000000007,344.45848897034494 474.30000000000007,353.158488970345 477.5,359.758488970345 C 481.1,367.258488970345 484.1,375.35848897034504 485.70000000000005,381.758488970345 C 487.0,387.258488970345 490.1,398.05848897034497 492.6,405.55848897034497 C 495.0,413.05848897034497 497.0,420.158488970345 497.0,421.158488970345 C 497.0,422.258488970345 495.9,426.658488970345 494.6,430.95848897034494 C 493.4,435.35848897034504 490.0,446.55848897034497 487.20000000000005,455.85848897034504 C 484.4,465.258488970345 480.80000000000007,476.258488970345 479.20000000000005,480.35848897034504 C 477.5,484.45848897034506 474.80000000000007,491.258488970345 473.0,495.35848897034504 C 471.30000000000007,499.45848897034506 468.1,505.758488970345 465.9,509.35848897034504 C 463.70000000000005,512.958488970345 457.80000000000007,521.758488970345 452.70000000000005,529.0584889703449 C 445.0,540.058488970345 440.70000000000005,544.858488970345 426.5,558.4584889703449 C 417.20000000000005,567.358488970345 406.40000000000003,576.9584889703449 402.5,579.858488970345 C 398.70000000000005,582.6584889703449 392.40000000000003,587.058488970345 388.5,589.4584889703449 C 384.70000000000005,591.9584889703449 372.70000000000005,598.258488970345 362.0,603.558488970345 C 351.3,608.858488970345 340.0,613.9584889703449 337.0,614.858488970345 C 334.0,615.858488970345 327.90000000000003,618.1584889703449 323.5,620.058488970345 C 317.5,622.6584889703449 313.20000000000005,623.758488970345 306.5,624.4584889703449 C 301.6,624.858488970345 291.40000000000003,626.258488970345 284.0,627.358488970345 C 273.70000000000005,628.9584889703449 263.6,629.6584889703449 242.0,630.058488970345 C 216.40000000000003,630.558488970345 213.10000000000002,630.4584889703449 210.20000000000005,628.9584889703449 C 208.40000000000003,628.058488970345 206.5,626.258488970345 206.0,624.9584889703449 C 205.60000000000002,623.6584889703449 204.90000000000003,576.4584889703449 204.60000000000002,519.958488970345 C 204.0,420.158488970345 203.90000000000003,417.05848897034497 202.0,413.258488970345 C 200.90000000000003,411.158488970345 198.7,408.758488970345 197.10000000000002,407.95848897034494 C 194.60000000000002,406.658488970345 181.60000000000002,406.35848897034504 108.9,405.85848897034504 C 23.5,405.258488970345 23.5,405.258488970345 19.60000000000001,407.55848897034497 C 17.0,409.05848897034497 14.700000000000003,411.55848897034497 13.100000000000009,414.85848897034504 C 10.5,419.758488970345 10.5,419.758488970345 10.5,621.4584889703449 C 10.5,823.258488970345 10.5,823.258488970345 12.600000000000009,826.058488970345 C 13.700000000000003,827.558488970345 16.80000000000001,830.358488970345 19.400000000000006,832.058488970345 C 22.0,833.858488970345 25.60000000000001,835.6584889703449 27.30000000000001,836.058488970345 C 29.10000000000001,836.558488970345 79.30000000000001,836.558488970345 139.0,836.258488970345 C 209.2,835.858488970345 250.10000000000002,835.258488970345 255.0,834.558488970345 C 259.1,833.958488970345 272.90000000000003,832.558488970345 285.5,831.358488970345 C 298.20000000000005,830.1584889703449 313.5,828.358488970345 319.5,827.1584889703449 C 325.6,826.058488970345 336.70000000000005,823.6584889703449 344.20000000000005,821.758488970345 C 351.8,819.858488970345 360.1,817.458488970345 362.70000000000005,816.458488970345 C 365.40000000000003,815.458488970345 370.90000000000003,813.858488970345 375.0,812.858488970345 C 379.1,811.858488970345 384.1,810.258488970345 386.0,809.358488970345 C 387.90000000000003,808.358488970345 391.3,807.058488970345 393.5,806.358488970345 C 395.70000000000005,805.6584889703449 406.3,801.358488970345 417.0,796.858488970345 C 427.70000000000005,792.358488970345 437.6,788.258488970345 439.0,787.858488970345 C 440.4,787.4584889703449 444.9,785.1584889703449 449.0,782.858488970345 C 453.1,780.558488970345 461.20000000000005,776.058488970345 467.0,772.858488970345 C 472.80000000000007,769.6584889703449 478.70000000000005,766.358488970345 480.20000000000005,765.4584889703449 C 481.70000000000005,764.558488970345 488.1,760.258488970345 494.4,755.858488970345 C 500.80000000000007,751.4584889703449 507.6,746.9584889703449 509.5,745.758488970345 C 511.5,744.6584889703449 516.1,741.258488970345 519.7,738.258488970345 C 523.4000000000001,735.258488970345 531.9000000000001,727.858488970345 538.5999999999999,721.858488970345 C 545.3,715.758488970345 553.7,708.258488970345 557.2,705.1584889703449 C 560.8,702.058488970345 566.5999999999999,696.058488970345 570.0999999999999,691.758488970345 C 573.5999999999999,687.4584889703449 580.5,679.4584889703449 585.4000000000001,673.9584889703449 C 590.3,668.4584889703449 597.3,659.858488970345 601.0,654.858488970345 C 604.5999999999999,649.9584889703449 611.8,639.6584889703449 616.9000000000001,631.9584889703449 C 621.9000000000001,624.358488970345 627.4000000000001,615.358488970345 629.0,611.9584889703449 C 630.5999999999999,608.6584889703449 634.7,601.358488970345 638.0,595.858488970345 C 641.3,590.358488970345 645.8,582.4584889703449 648.0,578.258488970345 C 650.0999999999999,574.058488970345 653.0999999999999,569.6584889703449 654.5,568.4584889703449 C 656.0,567.358488970345 658.0,566.1584889703449 659.0,565.858488970345 C 660.0,565.558488970345 663.5,565.9584889703449 666.8,566.858488970345 C 671.0,567.858488970345 677.5,568.358488970345 688.0999999999999,568.358488970345 C 696.5999999999999,568.358488970345 707.8,567.6584889703449 713.0,566.858488970345 C 718.2,566.058488970345 727.7,563.858488970345 734.0,562.058488970345 C 740.3,560.1584889703449 749.9000000000001,556.9584889703449 755.2,554.9584889703449 C 760.5999999999999,553.058488970345 767.8,549.9584889703449 771.2,548.258488970345 C 774.7,546.558488970345 782.5,541.558488970345 788.7,537.1584889703449 C 796.3,531.758488970345 801.9000000000001,526.758488970345 806.0999999999999,521.758488970345 C 809.4000000000001,517.758488970345 813.3,513.758488970345 814.5999999999999,512.858488970345 C 815.9000000000001,512.0584889703449 821.0,506.55848897034497 825.8,500.55848897034497 C 830.7,494.658488970345 839.8,483.05848897034497 846.0,474.85848897034504 C 852.2,466.55848897034497 858.5999999999999,458.258488970345 860.0999999999999,456.35848897034504 C 861.7,454.45848897034506 866.0,448.95848897034506 869.7,444.258488970345 C 873.4000000000001,439.55848897034497 881.0,430.658488970345 886.5,424.35848897034504 C 892.0,418.05848897034497 901.0,408.658488970345 906.5,403.45848897034494 C 912.0,398.158488970345 922.0999999999999,388.258488970345 929.0,381.35848897034504 C 935.9000000000001,374.45848897034494 943.5,367.158488970345 946.0,365.158488970345 C 948.5,363.258488970345 955.5,358.158488970345 961.7,354.05848897034497 C 967.8,349.85848897034504 973.9000000000001,346.158488970345 975.3,345.85848897034504 C 977.1000000000001,345.35848897034504 978.4000000000001,345.758488970345 979.9000000000001,347.258488970345 C 981.3,348.658488970345 982.1000000000001,350.758488970345 982.2,353.55848897034497 C 982.2,355.95848897034494 982.4000000000001,400.55848897034497 982.6000000000001,452.85848897034504 C 982.7,505.05848897034497 983.1000000000001,559.758488970345 983.4000000000001,574.358488970345 C 983.7,588.9584889703449 984.3,604.4584889703449 984.9000000000001,608.858488970345 C 985.5,613.258488970345 986.4000000000001,620.6584889703449 987.0,625.1584889703449 C 987.6000000000001,629.758488970345 989.2,636.758488970345 990.5,640.6584889703449 C 991.8,644.6584889703449 994.0,650.758488970345 995.5,654.358488970345 C 996.9000000000001,657.9584889703449 999.8,664.6584889703449 1002.0,669.358488970345 C 1004.1000000000001,674.058488970345 1006.2,678.9584889703449 1006.5,680.358488970345 C 1006.9000000000001,681.758488970345 1008.6000000000001,685.558488970345 1010.2,688.758488970345 C 1011.9000000000001,692.058488970345 1014.9000000000001,697.058488970345 1017.0,699.758488970345 C 1019.1000000000001,702.558488970345 1021.5,706.4584889703449 1022.3,708.358488970345 C 1023.1000000000001,710.258488970345 1027.2,716.058488970345 1031.4,721.1584889703449 C 1035.6000000000001,726.1584889703449 1039.5,730.358488970345 1040.0,730.358488970345 C 1040.5,730.358488970345 1043.0,732.9584889703449 1045.6000000000001,736.058488970345 C 1048.1000000000001,739.258488970345 1053.9,744.858488970345 1058.4,748.6584889703449 C 1062.8,752.358488970345 1070.7,758.4584889703449 1075.8,762.1584889703449 C 1080.9,765.858488970345 1087.5,770.4584889703449 1090.5,772.358488970345 C 1093.5,774.258488970345 1099.2,777.758488970345 1103.2,780.058488970345 C 1107.2,782.258488970345 1114.5,785.358488970345 1119.3,786.858488970345 C 1124.1000000000001,788.258488970345 1130.0,790.358488970345 1132.4,791.358488970345 C 1134.7,792.4584889703449 1144.0,795.1584889703449 1153.0,797.358488970345 C 1162.0,799.558488970345 1170.7,801.358488970345 1172.4,801.358488970345 C 1174.1000000000001,801.358488970345 1176.6000000000001,800.758488970345 1177.9,800.058488970345 C 1179.3000000000002,799.458488970345 1181.3000000000002,797.358488970345 1182.3000000000002,795.558488970345 C 1184.2,792.358488970345 1184.3000000000002,787.9584889703449 1185.1000000000001,675.058488970345 C 1185.5,610.558488970345 1186.2,450.658488970345 1186.5,319.658488970345 C 1187.0,112.05848897034494 1186.9,81.05848897034494 1185.6000000000001,78.65848897034496 C 1184.8000000000002,77.15848897034496 1183.1000000000001,74.85848897034501 1181.8000000000002,73.65848897034496 C 1180.6000000000001,72.45848897034492 1178.4,71.05848897034494 1177.0,70.55848897034494 C 1175.5,69.95848897034492 1166.8000000000002,69.95848897034492 1155.0,70.45848897034492 C 1144.3000000000002,70.85848897034501 1126.1000000000001,72.15848897034496 1114.5,73.35848897034501 C 1102.0,74.55848897034494 1088.0,76.65848897034496 1080.0,78.45848897034492 C 1072.6000000000001,80.15848897034496 1060.9,83.25848897034498 1054.0,85.45848897034492 C 1047.1000000000001,87.55848897034494 1035.4,91.15848897034496 1028.0,93.45848897034492 C 1020.6000000000001,95.75848897034498 1013.2,98.35848897034501 1011.5,99.15848897034496 C 1009.9000000000001,99.95848897034492 1003.8,102.45848897034492 998.0,104.65848897034496 C 992.2,106.75848897034498 982.8,110.25848897034498 977.0,112.35848897034501 C 971.2,114.45848897034492 958.9000000000001,120.15848897034496 949.5,125.05848897034494 C 940.2,129.95848897034492 924.5999999999999,138.25848897034498 915.0,143.55848897034494 C 905.4000000000001,148.75848897034498 891.2,157.358488970345 883.5,162.55848897034494 C 875.8,167.75848897034498 861.9000000000001,177.358488970345 852.5,183.858488970345 C 843.2,190.45848897034492 833.0,198.05848897034494 829.9000000000001,200.858488970345 C 826.8,203.55848897034494 821.7,208.05848897034494 818.4000000000001,210.65848897034496 C 815.2,213.358488970345 803.8,223.858488970345 793.2,234.05848897034494 C 782.5999999999999,244.25848897034498 771.9000000000001,255.358488970345 769.4000000000001,258.658488970345 C 766.8,262.05848897034497 761.8,267.758488970345 758.0999999999999,271.35848897034504 C 754.5,274.95848897034494 746.2,283.658488970345 739.8,290.85848897034504 C 733.3,297.95848897034494 726.0,306.35848897034504 723.5,309.35848897034504 C 721.0,312.35848897034504 713.8,321.258488970345 707.5,328.95848897034494 C 698.2,340.45848897034494 695.3,343.45848897034494 691.8,344.758488970345 C 689.3,345.85848897034504 686.4000000000001,346.258488970345 684.5,345.95848897034494 C 682.8,345.55848897034497 679.9000000000001,343.85848897034504 678.2,342.05848897034497 C 676.5,340.258488970345 673.9000000000001,336.05848897034497 672.5999999999999,332.758488970345 C 671.2,329.45848897034494 668.3,321.55848897034497 666.0999999999999,315.258488970345 C 663.9000000000001,308.95848897034494 660.7,300.05848897034497 659.0,295.35848897034504 C 657.4000000000001,290.658488970345 654.2,282.758488970345 651.9000000000001,277.85848897034504 C 649.5999999999999,272.85848897034504 645.3,263.85848897034504 642.4000000000001,257.85848897034504 C 639.5,251.75848897034498 631.4000000000001,238.05848897034494 624.4000000000001,227.358488970345 C 617.4000000000001,216.65848897034496 610.4000000000001,205.55848897034494 608.8,202.858488970345 C 607.0999999999999,200.05848897034494 604.0,195.358488970345 601.7,192.358488970345 C 599.4000000000001,189.358488970345 594.4000000000001,183.05848897034494 590.4000000000001,178.358488970345 C 586.5,173.65848897034496 578.2,164.55848897034494 572.0,158.05848897034494 C 565.8,151.55848897034494 557.7,143.75848897034498 553.9000000000001,140.55848897034494 C 550.0999999999999,137.45848897034492 541.7,130.05848897034494 535.3,124.25848897034498 C 528.8,118.45848897034492 522.2,112.85848897034501 520.5,111.85848897034501 C 518.9000000000001,110.75848897034498 514.8000000000001,107.85848897034501 511.5,105.35848897034501 C 508.20000000000005,102.75848897034498 500.80000000000007,97.25848897034498 495.0,93.15848897034496 C 489.20000000000005,89.05848897034494 480.6,83.15848897034496 475.9,80.15848897034496 C 471.1,77.05848897034494 458.70000000000005,70.05848897034494 448.4,64.45848897034492 C 438.0,58.958488970344916 424.80000000000007,52.65848897034496 419.0,50.55848897034494 C 413.20000000000005,48.35848897034501 406.6,45.65848897034496 404.3,44.55848897034494 C 402.0,43.35848897034501 395.5,40.85848897034501 389.8,38.958488970344916 C 384.20000000000005,37.05848897034494 373.40000000000003,33.958488970344916 366.0,31.95848897034492 C 358.6,29.95848897034492 344.20000000000005,26.258488970344875 334.0,23.758488970344875 C 320.90000000000003,20.45848897034492 308.1,18.158488970344965 290.20000000000005,15.858488970345011 C 276.3,13.95848897034492 259.20000000000005,12.058488970345056 252.20000000000005,11.358488970345011 C 244.10000000000002,10.658488970344965 201.2,10.258488970344875 133.20000000000002,10.058488970345056" fill="url(#dmGrad)"/>
</svg>
